<svg version="1.1" preserveAspectRatio="none" xmlns="http://www.w3.org/2000/svg" width="500" height="500" viewBox="0 0 500 500"><rect width="100%" height="100%" fill="#F7F7F7" fill-opacity="1"/><svg viewBox="356.6121 297.1954 384.9588 179.3793" width="333" height="155.16805149018543" x="83.5px" y="172.416px" xmlns="http://www.w3.org/2000/svg" xmlns:xlink="http://www.w3.org/1999/xlink" preserveAspectRatio="none"><defs></defs><style>.companyName {fill:#2B2B2B;fill-opacity:1;}.icon1 {fill:#2B2B2B;fill-opacity:1;}.icon2 {fill:#59C65B;fill-opacity:1;}.icon3 {fill:#6D6D6D;fill-opacity:1;}.icon3-str {stroke:#6D6D6D;stroke-opacity:1;}</style><g opacity="1" transform="rotate(0 491.3477 297.1954)">
<svg width="115.4876" height="80.8593" x="491.3477" y="297.1954" version="1.1" preserveAspectRatio="none" viewBox="19.896129608154297 44 160.10704040527344 112.09999084472656">
  <g transform="matrix(1 0 0 1 0 0)" ><g><path d="M179.8 128.6l-5.6-43.5c-.4-2.5-.7-5-.9-7.5l-.3-2.7C171 57.3 156.2 44 138.7 44c-7.9 0-15.6 2.8-21.7 7.8-4.6 3.8-10.3 5.9-15.9 5.9h-2.2c-5.6 0-11.2-2.1-15.9-5.9-6.1-5-13.9-7.8-21.8-7.8C43.8 44 29 57.3 27 74.9l-.3 2.6c-.3 2.5-.6 5.1-1 7.6l-5.6 43.4c-.9 7 1.2 14 5.9 19.3 4.6 5.2 11.2 8.2 18 8.2 8.4 0 16.3-4.5 20.6-11.8l13.5-23c1.7-2.9 4.9-4.7 8.2-4.7h27.2c3.3 0 6.5 1.8 8.2 4.7l13.5 23c4.3 7.3 12.2 11.9 20.6 11.9 6.9 0 13.4-3 17.9-8.1 4.9-5.4 7-12.4 6.1-19.4z" data-color="1" class="icon1"></path><path d="M85.8 87.5c0 14.3-11.6 25.8-25.8 25.8-14.3 0-25.8-11.6-25.8-25.8 0-14.3 11.6-25.8 25.8-25.8 14.2 0 25.8 11.6 25.8 25.8z" data-color="2" class="icon2"></path><path d="M165.9 87.5c0 14.3-11.6 25.8-25.8 25.8-14.3 0-25.8-11.6-25.8-25.8 0-14.3 11.6-25.8 25.8-25.8 14.2 0 25.8 11.6 25.8 25.8z" data-color="2" class="icon2"></path><path d="M100 73.7c-4.1 0-7.5 3.4-7.5 7.5s3.4 7.5 7.5 7.5 7.5-3.4 7.5-7.5-3.3-7.5-7.5-7.5z" data-color="2" class="icon2"></path><path d="M94.6 67.2h10.3c.6 0 1-.9 1-1.9 0-1.1-.5-1.9-1-1.9H94.6c-.6 0-1 .9-1 1.9 0 1 .5 1.9 1 1.9z" data-color="2" class="icon2"></path><path d="M140.1 82.1c3.3 0 6-2.7 6-6s-2.7-6-6-6-6 2.7-6 6c-.1 3.3 2.6 6 6 6z" data-color="3" class="icon3"></path><path d="M146.1 99c0 3.3-2.7 6-6 6s-6-2.7-6-6 2.7-6 6-6 6 2.7 6 6z" data-color="3" class="icon3"></path><path d="M151.6 81.5c-3.3 0-6 2.7-6 6s2.7 6 6 6 6-2.7 6-6-2.7-6-6-6z" data-color="3" class="icon3"></path><path d="M128.6 81.5c-3.3 0-6 2.7-6 6s2.7 6 6 6 6-2.7 6-6-2.7-6-6-6z" data-color="3" class="icon3"></path><path d="M72.4 80.8h-6.5v-6.5c0-1.1-.9-1.9-1.9-1.9h-8.1c-1.1 0-1.9.9-1.9 1.9v6.5h-6.5c-1.1 0-1.9.9-1.9 1.9v8.1c0 1.1.9 1.9 1.9 1.9H54v6.5c0 1.1.9 1.9 1.9 1.9H64c1.1 0 1.9-.9 1.9-1.9v-6.5h6.5c1.1 0 1.9-.9 1.9-1.9v-8.1c.1-1-.8-1.9-1.9-1.9z" data-color="3" class="icon3"></path></g></g>
</svg>
</g><g opacity="1" transform="rotate(0 470.3034 456.0547)">
<svg width="157.5763" height="20.52" x="470.3034" y="456.0547" version="1.1" preserveAspectRatio="none" viewBox="0.6836 -30 233.332 30.390700000000002">
  <g transform="matrix(1 0 0 1 0 0)" class="companyName"><path id="id-6izo4zJp11" d="M20.02-28.44L24.69-8.20L28.52-28.44L34.36-28.44L28.05 0L22.15 0L17.52-19.02L12.89 0L6.99 0L0.68-28.44L6.52-28.44L10.37-8.24L15.06-28.44L20.02-28.44Z M36.46-10.51L36.46-10.76Q36.46-13.91 37.67-16.37Q38.89-18.83 41.16-20.18Q43.44-21.52 46.44-21.52L46.44-21.52Q50.72-21.52 53.43-18.91Q56.13-16.29 56.44-11.80L56.44-11.80L56.48-10.35Q56.48-5.49 53.77-2.55Q51.05 0.39 46.48 0.39Q41.91 0.39 39.19-2.54Q36.46-5.47 36.46-10.51L36.46-10.51ZM42.11-10.35L42.11-10.35Q42.11-7.34 43.24-5.75Q44.37-4.16 46.48-4.16L46.48-4.16Q48.53-4.16 49.69-5.73Q50.84-7.30 50.84-10.76L50.84-10.76Q50.84-13.71 49.69-15.33Q48.53-16.95 46.44-16.95L46.44-16.95Q44.37-16.95 43.24-15.34Q42.11-13.73 42.11-10.35Z M60.64-21.13L65.96-21.13L66.13-18.69Q68.40-21.52 72.21-21.52L72.21-21.52Q75.56-21.52 77.21-19.55Q78.85-17.58 78.89-13.65L78.89-13.65L78.89 0L73.24 0L73.24-13.52Q73.24-15.31 72.46-16.12Q71.68-16.93 69.86-16.93L69.86-16.93Q67.48-16.93 66.29-14.90L66.29-14.90L66.29 0L60.64 0L60.64-21.13Z M83.08-10.72L83.08-10.72Q83.08-15.66 85.30-18.59Q87.52-21.52 91.36-21.52L91.36-21.52Q94.45-21.52 96.46-19.22L96.46-19.22L96.46-30L102.13-30L102.13 0L97.03 0L96.76-2.25Q94.65 0.39 91.33 0.39L91.33 0.39Q87.60 0.39 85.34-2.55Q83.08-5.49 83.08-10.72ZM88.73-10.31L88.73-10.31Q88.73-7.34 89.76-5.76Q90.80-4.18 92.77-4.18L92.77-4.18Q95.39-4.18 96.46-6.39L96.46-6.39L96.46-14.73Q95.41-16.93 92.81-16.93L92.81-16.93Q88.73-16.93 88.73-10.31Z M117.03 0.39L117.03 0.39Q112.38 0.39 109.46-2.46Q106.54-5.31 106.54-10.06L106.54-10.06L106.54-10.61Q106.54-13.79 107.77-16.30Q109.00-18.81 111.26-20.17Q113.51-21.52 116.40-21.52L116.40-21.52Q120.74-21.52 123.23-18.79Q125.72-16.05 125.72-11.04L125.72-11.04L125.72-8.73L112.26-8.73Q112.54-6.66 113.91-5.41Q115.29-4.16 117.40-4.16L117.40-4.16Q120.66-4.16 122.50-6.52L122.50-6.52L125.27-3.42Q124.00-1.62 121.83-0.62Q119.66 0.39 117.03 0.39ZM116.38-16.95L116.38-16.95Q114.70-16.95 113.66-15.82Q112.61-14.69 112.32-12.58L112.32-12.58L120.17-12.58L120.17-13.03Q120.13-14.90 119.16-15.93Q118.18-16.95 116.38-16.95Z M141.68-21.27L141.60-15.84Q140.45-16.00 139.57-16.00L139.57-16.00Q136.36-16.00 135.37-13.83L135.37-13.83L135.37 0L129.72 0L129.72-21.13L135.05-21.13L135.21-18.61Q136.91-21.52 139.92-21.52L139.92-21.52Q140.86-21.52 141.68-21.27L141.68-21.27Z M166.89-28.44L166.89-23.69L158.18-23.69L158.18 0L152.32 0L152.32-23.69L143.73-23.69L143.73-28.44L166.89-28.44Z M178.65 0.39L178.65 0.39Q174.00 0.39 171.08-2.46Q168.16-5.31 168.16-10.06L168.16-10.06L168.16-10.61Q168.16-13.79 169.39-16.30Q170.62-18.81 172.88-20.17Q175.13-21.52 178.02-21.52L178.02-21.52Q182.36-21.52 184.85-18.79Q187.34-16.05 187.34-11.04L187.34-11.04L187.34-8.73L173.88-8.73Q174.15-6.66 175.53-5.41Q176.91-4.16 179.02-4.16L179.02-4.16Q182.28-4.16 184.12-6.52L184.12-6.52L186.89-3.42Q185.62-1.62 183.45-0.62Q181.28 0.39 178.65 0.39ZM178.00-16.95L178.00-16.95Q176.32-16.95 175.28-15.82Q174.23-14.69 173.94-12.58L173.94-12.58L181.79-12.58L181.79-13.03Q181.75-14.90 180.78-15.93Q179.80-16.95 178.00-16.95Z M200.13-4.16L200.13-4.16Q201.69-4.16 202.67-5.02Q203.65-5.88 203.69-7.30L203.69-7.30L208.98-7.30Q208.96-5.16 207.81-3.37Q206.65-1.58 204.65-0.60Q202.65 0.39 200.23 0.39L200.23 0.39Q195.70 0.39 193.08-2.49Q190.46-5.37 190.46-10.45L190.46-10.45L190.46-10.82Q190.46-15.70 193.06-18.61Q195.66-21.52 200.19-21.52L200.19-21.52Q204.15-21.52 206.55-19.27Q208.94-17.01 208.98-13.26L208.98-13.26L203.69-13.26Q203.65-14.90 202.67-15.93Q201.69-16.95 200.09-16.95L200.09-16.95Q198.12-16.95 197.11-15.52Q196.11-14.08 196.11-10.86L196.11-10.86L196.11-10.27Q196.11-7.01 197.10-5.59Q198.10-4.16 200.13-4.16Z M218.51-30L218.51-18.83Q220.75-21.52 224.15-21.52L224.15-21.52Q231.03-21.52 231.13-13.54L231.13-13.54L231.13 0L225.48 0L225.48-13.38Q225.48-15.20 224.70-16.06Q223.92-16.93 222.10-16.93L222.10-16.93Q219.62-16.93 218.51-15.02L218.51-15.02L218.51 0L212.86 0L212.86-30L218.51-30Z"/></g>
</svg>
</g><g opacity="1" transform="rotate(0 356.6121 404.0547)">
<svg width="384.9588" height="38" x="356.6121" y="404.0547" version="1.1" preserveAspectRatio="none" viewBox="0.2 -25.44 257.72 25.44">
  <g transform="matrix(1 0 0 1 0 0)" class="companyName"><path id="id-D6z1nYkh15" d="M0.20-25.44L15.24-25.44L15.24-21.24L10.56-21.24L10.56 0L4.84 0L4.84-21.24L0.20-21.24L0.20-25.44Z M23.76-10.84L23.76-4.20L31.92-4.20L31.92 0L18.04 0L18.04-25.44L31.60-25.44L31.60-21.24L23.76-21.24L23.76-15.04L30.44-15.04L30.44-10.84L23.76-10.84Z M50.24-21.04L50.24-16.52L44.48-16.52L44.48-20.52Q44.48-21.52 43.44-21.52L43.44-21.52L41.80-21.52Q40.72-21.52 40.72-20.52L40.72-20.52L40.72-4.92Q40.72-4.36 40.96-4.14Q41.20-3.92 41.80-3.92L41.80-3.92L43.44-3.92Q44.00-3.92 44.24-4.14Q44.48-4.36 44.48-4.92L44.48-4.92L44.48-8.80L50.24-8.80L50.24-4.40Q50.24 0 45.16 0L45.16 0L40.04 0Q35.00 0 35.00-4.40L35.00-4.40L35.00-21.04Q35.00-25.44 40.04-25.44L40.04-25.44L45.16-25.44Q50.24-25.44 50.24-21.04L50.24-21.04Z M64.76-14.68L64.76-25.44L70.40-25.44L70.40 0L64.76 0L64.76-10.48L59.64-10.48L59.64 0L54.00 0L54.00-25.44L59.64-25.44L59.64-14.68L64.76-14.68Z M100.12 0L94.36 0L93.48-4.60L87.68-4.60L86.80 0L81.16 0L86.92-25.44L94.20-25.44L100.12 0ZM90.56-19.52L88.48-8.76L92.64-8.76L90.56-19.52Z M111.72-5.20L111.72-5.20L111.72-9.80Q111.72-10.32 111.48-10.54Q111.24-10.76 110.64-10.76L110.64-10.76L107.12-10.76Q102.40-10.76 102.40-15.24L102.40-15.24L102.40-21.04Q102.40-25.44 107.44-25.44L107.44-25.44L112.32-25.44Q117.36-25.44 117.36-21.04L117.36-21.04L117.36-17.72L111.64-17.72L111.64-20.24Q111.64-21.24 110.56-21.24L110.56-21.24L109.20-21.24Q108.12-21.24 108.12-20.24L108.12-20.24L108.12-15.76Q108.12-15.24 108.36-15.02Q108.60-14.80 109.20-14.80L109.20-14.80L112.64-14.80Q115.20-14.80 116.32-13.70Q117.44-12.60 117.44-10.44L117.44-10.44L117.44-4.44Q117.44 0 112.40 0L112.40 0L107.56 0Q102.48 0 102.48-4.44L102.48-4.44L102.48-7.72L108.20-7.72L108.20-5.20Q108.20-4.20 109.28-4.20L109.28-4.20L110.64-4.20Q111.72-4.20 111.72-5.20Z M130.20-5.20L130.20-5.20L130.20-9.80Q130.20-10.32 129.96-10.54Q129.72-10.76 129.12-10.76L129.12-10.76L125.60-10.76Q120.88-10.76 120.88-15.24L120.88-15.24L120.88-21.04Q120.88-25.44 125.92-25.44L125.92-25.44L130.80-25.44Q135.84-25.44 135.84-21.04L135.84-21.04L135.84-17.72L130.12-17.72L130.12-20.24Q130.12-21.24 129.04-21.24L129.04-21.24L127.68-21.24Q126.60-21.24 126.60-20.24L126.60-20.24L126.60-15.76Q126.60-15.24 126.84-15.02Q127.08-14.80 127.68-14.80L127.68-14.80L131.12-14.80Q133.68-14.80 134.80-13.70Q135.92-12.60 135.92-10.44L135.92-10.44L135.92-4.44Q135.92 0 130.88 0L130.88 0L126.04 0Q120.96 0 120.96-4.44L120.96-4.44L120.96-7.72L126.68-7.72L126.68-5.20Q126.68-4.20 127.76-4.20L127.76-4.20L129.12-4.20Q130.20-4.20 130.20-5.20Z M139.96 0L139.96-25.44L145.64-25.44L145.64 0L139.96 0Z M159-5.20L159-5.20L159-9.80Q159-10.32 158.76-10.54Q158.52-10.76 157.92-10.76L157.92-10.76L154.40-10.76Q149.68-10.76 149.68-15.24L149.68-15.24L149.68-21.04Q149.68-25.44 154.72-25.44L154.72-25.44L159.60-25.44Q164.64-25.44 164.64-21.04L164.64-21.04L164.64-17.72L158.92-17.72L158.92-20.24Q158.92-21.24 157.84-21.24L157.84-21.24L156.48-21.24Q155.40-21.24 155.40-20.24L155.40-20.24L155.40-15.76Q155.40-15.24 155.64-15.02Q155.88-14.80 156.48-14.80L156.48-14.80L159.92-14.80Q162.48-14.80 163.60-13.70Q164.72-12.60 164.72-10.44L164.72-10.44L164.72-4.44Q164.72 0 159.68 0L159.68 0L154.84 0Q149.76 0 149.76-4.44L149.76-4.44L149.76-7.72L155.48-7.72L155.48-5.20Q155.48-4.20 156.56-4.20L156.56-4.20L157.92-4.20Q159-4.20 159-5.20Z M167.04-25.44L182.08-25.44L182.08-21.24L177.40-21.24L177.40 0L171.68 0L171.68-21.24L167.04-21.24L167.04-25.44Z M202.24 0L196.48 0L195.60-4.60L189.80-4.60L188.92 0L183.28 0L189.04-25.44L196.32-25.44L202.24 0ZM192.68-19.52L190.60-8.76L194.76-8.76L192.68-19.52Z M215.64-10.24L215.64-25.44L220.88-25.44L220.88 0L215.76 0L210.20-15.24L210.20 0L205.00 0L205.00-25.44L210.16-25.44L215.64-10.24Z M240.28-21.04L240.28-16.52L234.52-16.52L234.52-20.52Q234.52-21.52 233.48-21.52L233.48-21.52L231.84-21.52Q230.76-21.52 230.76-20.52L230.76-20.52L230.76-4.92Q230.76-4.36 231.00-4.14Q231.24-3.92 231.84-3.92L231.84-3.92L233.48-3.92Q234.04-3.92 234.28-4.14Q234.52-4.36 234.52-4.92L234.52-4.92L234.52-8.80L240.28-8.80L240.28-4.40Q240.28 0 235.20 0L235.20 0L230.08 0Q225.04 0 225.04-4.40L225.04-4.40L225.04-21.04Q225.04-25.44 230.08-25.44L230.08-25.44L235.20-25.44Q240.28-25.44 240.28-21.04L240.28-21.04Z M249.76-10.84L249.76-4.20L257.92-4.20L257.92 0L244.04 0L244.04-25.44L257.60-25.44L257.60-21.24L249.76-21.24L249.76-15.04L256.44-15.04L256.44-10.84L249.76-10.84Z"/></g>
</svg>
</g></svg></svg>